<svg id="Layer_1" data-name="Layer 1" xmlns="http://www.w3.org/2000/svg" xmlns:xlink="http://www.w3.org/1999/xlink" viewBox="0 0 1900 500"><defs><style>.cls-1,.cls-12{fill:none;}.cls-2{clip-path:url(#clip-path);}.cls-3{fill:#fff;}.cls-13,.cls-17,.cls-19,.cls-24,.cls-4,.cls-5{isolation:isolate;}.cls-13,.cls-17,.cls-19,.cls-24,.cls-5{font-size:20px;font-family:Gilroy-ExtraBold, Gilroy;font-weight:800;}.cls-5{fill:#da2778;}.cls-6{letter-spacing:-0.03em;}.cls-7{letter-spacing:0em;}.cls-8{letter-spacing:0em;}.cls-9{letter-spacing:-0.02em;}.cls-10{fill:#9ca3af;}.cls-11{fill:url(#linear-gradient);}.cls-12{stroke:#9ca3af;stroke-linecap:round;stroke-linejoin:round;stroke-width:1.5px;}.cls-13{fill:#61bfcd;}.cls-14{letter-spacing:0.02em;}.cls-15{letter-spacing:-0.02em;}.cls-16{fill:url(#linear-gradient-2);}.cls-17{fill:#43c6ac;}.cls-18{fill:url(#linear-gradient-3);}.cls-19{fill:#ff5c6c;}.cls-20{letter-spacing:-0.01em;}.cls-21{letter-spacing:-0.01em;}.cls-22{letter-spacing:0em;}.cls-23{fill:url(#linear-gradient-4);}.cls-24{fill:#6de6b7;}.cls-25{letter-spacing:-0.02em;}.cls-26{letter-spacing:-0.01em;}.cls-27{fill:url(#linear-gradient-5);}.cls-28{fill:url(#linear-gradient-6);}</style><clipPath id="clip-path"><rect class="cls-1" x="116.44" y="62.71" width="1667" height="374"/></clipPath><linearGradient id="linear-gradient" x1="-1063.48" y1="449.59" x2="-1062.48" y2="449.58" gradientTransform="matrix(234, 0, 0, -227, 249016, 102275)" gradientUnits="userSpaceOnUse"><stop offset="0" stop-color="#7f22ce"/><stop offset="1" stop-color="#db2778"/></linearGradient><linearGradient id="linear-gradient-2" x1="-1063.48" y1="449.58" x2="-1062.48" y2="449.58" gradientTransform="matrix(234, 0, 0, -227, 249353, 102275)" gradientUnits="userSpaceOnUse"><stop offset="0" stop-color="#62c0ce"/><stop offset="1" stop-color="#1e59ae"/></linearGradient><linearGradient id="linear-gradient-3" x1="-1063.47" y1="450.07" x2="-1062.51" y2="449.1" gradientTransform="matrix(234, 0, 0, -227, 249690, 102275)" gradientUnits="userSpaceOnUse"><stop offset="0" stop-color="#43c6ac"/><stop offset="1" stop-color="#f8ffae"/></linearGradient><linearGradient id="linear-gradient-4" x1="-1063.48" y1="449.59" x2="-1062.48" y2="449.58" gradientTransform="matrix(234, 0, 0, -227, 250027, 102275)" gradientUnits="userSpaceOnUse"><stop offset="0" stop-color="#ffe9ee"/><stop offset="1" stop-color="#ff5767"/></linearGradient><linearGradient id="linear-gradient-5" x1="-1063.48" y1="449.58" x2="-1062.51" y2="449.58" gradientTransform="matrix(234, 0, 0, -227, 250364, 102275)" gradientUnits="userSpaceOnUse"><stop offset="0" stop-color="#6ee7b7"/><stop offset="1" stop-color="#0891b2"/></linearGradient><linearGradient id="linear-gradient-6" x1="-1067.89" y1="450.83" x2="-1067.89" y2="450.27" gradientTransform="matrix(1920, 0, 0, -838, 2051305, 377793)" gradientUnits="userSpaceOnUse"><stop offset="0" stop-color="#fff" stop-opacity="0"/><stop offset="1" stop-color="#fff"/></linearGradient></defs><g class="cls-2"><g id="Repeat_Grid_2" data-name="Repeat Grid 2"><g id="Card"><path id="Path_4-6" data-name="Path 4-6" class="cls-3" d="M167.44,105.71h222a6,6,0,0,1,6,6v276a6,6,0,0,1-6,6h-222a6,6,0,0,1-6-6v-276A6,6,0,0,1,167.44,105.71Z"/><g id="Pomegradient" class="cls-4"><text class="cls-5" transform="translate(170.44 360.71)"><tspan class="cls-6">P</tspan><tspan x="11.2" y="0">om</tspan><tspan class="cls-7" x="40.06" y="0">e</tspan><tspan class="cls-8" x="51.56" y="0">g</tspan><tspan class="cls-9" x="64.02" y="0">r</tspan><tspan class="cls-8" x="71.12" y="0">adient</tspan></text></g><g id="Braydon_Coyer" data-name="Braydon Coyer" class="cls-4"><g class="cls-4"><path class="cls-10" d="M171.64,380.71V369.8h4a4.29,4.29,0,0,1,1.92.38,2.67,2.67,0,0,1,1.14,1,2.77,2.77,0,0,1,.38,1.46,2.41,2.41,0,0,1-.25,1.15,2,2,0,0,1-.67.74,2.94,2.94,0,0,1-.92.41v.11a2.17,2.17,0,0,1,1.07.34,2.64,2.64,0,0,1,.86.92,2.89,2.89,0,0,1,.34,1.44,2.94,2.94,0,0,1-.39,1.5,2.73,2.73,0,0,1-1.21,1.05,5,5,0,0,1-2.08.38Zm1.64-6.19h2.21a2.33,2.33,0,0,0,1-.21,1.71,1.71,0,0,0,.7-.6,1.55,1.55,0,0,0,.27-.91,1.51,1.51,0,0,0-.48-1.14,2,2,0,0,0-1.45-.46h-2.25Zm0,4.78h2.38a2.48,2.48,0,0,0,1.69-.46,1.47,1.47,0,0,0,.51-1.14,1.74,1.74,0,0,0-.26-.95,1.83,1.83,0,0,0-.74-.69,2.4,2.4,0,0,0-1.14-.26h-2.44Z"/><path class="cls-10" d="M181.32,380.71v-8.18h1.54v1.3h.08a2,2,0,0,1,.8-1,2.17,2.17,0,0,1,1.28-.38h.36l.32,0V374l-.34-.06a2.77,2.77,0,0,0-.49,0,2.09,2.09,0,0,0-1,.24,1.88,1.88,0,0,0-.69.65,1.81,1.81,0,0,0-.26.95v5Z"/><path class="cls-10" d="M189.39,380.89a3.38,3.38,0,0,1-1.41-.29,2.26,2.26,0,0,1-1-.84,2.44,2.44,0,0,1-.37-1.36,2.19,2.19,0,0,1,.27-1.14,2,2,0,0,1,.72-.71,3.93,3.93,0,0,1,1-.39,11.39,11.39,0,0,1,1.14-.21l1.2-.14a1.7,1.7,0,0,0,.66-.18.45.45,0,0,0,.21-.42v0a1.47,1.47,0,0,0-.39-1.09,1.63,1.63,0,0,0-1.17-.38,2,2,0,0,0-1.26.36,1.86,1.86,0,0,0-.64.78l-1.49-.34a2.76,2.76,0,0,1,.78-1.21,3.21,3.21,0,0,1,1.18-.67,4.72,4.72,0,0,1,1.41-.21,4.82,4.82,0,0,1,1,.12,2.85,2.85,0,0,1,1,.42,2.35,2.35,0,0,1,.79.86,3.1,3.1,0,0,1,.31,1.46v5.43h-1.56v-1.12h-.06a2.13,2.13,0,0,1-.47.61,2.55,2.55,0,0,1-.79.5A3.1,3.1,0,0,1,189.39,380.89Zm.35-1.28a2.25,2.25,0,0,0,1.13-.26,1.89,1.89,0,0,0,.72-.68,1.82,1.82,0,0,0,.24-.91v-1.05a.86.86,0,0,1-.32.15,5.61,5.61,0,0,1-.55.13l-.61.09-.49.06a4,4,0,0,0-.84.2,1.39,1.39,0,0,0-.61.4,1,1,0,0,0-.22.68,1,1,0,0,0,.43.89A2,2,0,0,0,189.74,379.61Z"/><path class="cls-10" d="M196.26,383.76a3.2,3.2,0,0,1-.65-.06,1.75,1.75,0,0,1-.44-.12l.38-1.3a1.89,1.89,0,0,0,1.1,0c.3-.1.55-.42.75-.95l.2-.54-3-8.29h1.71l2.07,6.35h.09l2.07-6.35h1.72l-3.38,9.26a3.65,3.65,0,0,1-.6,1.07,2.29,2.29,0,0,1-.86.66A2.82,2.82,0,0,1,196.26,383.76Z"/><path class="cls-10" d="M206.53,380.87a3.11,3.11,0,0,1-1.76-.51,3.37,3.37,0,0,1-1.22-1.45,5.41,5.41,0,0,1-.44-2.27,5.22,5.22,0,0,1,.45-2.27,3.37,3.37,0,0,1,1.22-1.45,3.2,3.2,0,0,1,1.76-.5,2.55,2.55,0,0,1,1.23.26,2.14,2.14,0,0,1,.72.58,4.62,4.62,0,0,1,.41.6H209V369.8h1.59v10.91H209v-1.27h-.13a4.8,4.8,0,0,1-.42.59,2.31,2.31,0,0,1-.73.59A2.57,2.57,0,0,1,206.53,380.87Zm.35-1.36a1.89,1.89,0,0,0,1.17-.36,2.28,2.28,0,0,0,.72-1,4.08,4.08,0,0,0,.25-1.51,4,4,0,0,0-.25-1.49,2.14,2.14,0,0,0-.72-1,1.85,1.85,0,0,0-1.17-.35,1.89,1.89,0,0,0-1.2.37,2.26,2.26,0,0,0-.72,1,4.12,4.12,0,0,0-.24,1.45,4.29,4.29,0,0,0,.24,1.48,2.39,2.39,0,0,0,.73,1A1.83,1.83,0,0,0,206.88,379.51Z"/><path class="cls-10" d="M216.3,380.88a3.77,3.77,0,0,1-2-.53,3.61,3.61,0,0,1-1.33-1.48,4.83,4.83,0,0,1-.47-2.21,4.91,4.91,0,0,1,.47-2.23,3.55,3.55,0,0,1,1.33-1.48,4.08,4.08,0,0,1,4,0,3.55,3.55,0,0,1,1.33,1.48,4.91,4.91,0,0,1,.47,2.23,4.83,4.83,0,0,1-.47,2.21,3.61,3.61,0,0,1-1.33,1.48A3.77,3.77,0,0,1,216.3,380.88Zm0-1.34a1.88,1.88,0,0,0,1.23-.4,2.32,2.32,0,0,0,.73-1,4.65,4.65,0,0,0,0-2.89,2.38,2.38,0,0,0-.73-1.06,2.12,2.12,0,0,0-2.48,0,2.38,2.38,0,0,0-.73,1.06,4.47,4.47,0,0,0,0,2.89,2.32,2.32,0,0,0,.73,1A1.89,1.89,0,0,0,216.31,379.54Z"/><path class="cls-10" d="M223.48,375.85v4.86h-1.59v-8.18h1.53v1.33h.1a2.34,2.34,0,0,1,.88-1,2.72,2.72,0,0,1,1.53-.4,3,3,0,0,1,1.47.35,2.39,2.39,0,0,1,1,1,3.76,3.76,0,0,1,.35,1.7v5.2h-1.6v-5a2,2,0,0,0-.46-1.39,1.63,1.63,0,0,0-1.27-.51,2,2,0,0,0-1,.24,1.74,1.74,0,0,0-.67.7A2.28,2.28,0,0,0,223.48,375.85Z"/><path class="cls-10" d="M244,373.35h-1.66a2.53,2.53,0,0,0-.36-.94,2.63,2.63,0,0,0-.64-.69,2.76,2.76,0,0,0-.84-.42,3.2,3.2,0,0,0-1-.14,3.05,3.05,0,0,0-1.69.47,3.3,3.3,0,0,0-1.17,1.39,6,6,0,0,0,0,4.48,3.13,3.13,0,0,0,1.18,1.39,3.07,3.07,0,0,0,1.67.47,3.53,3.53,0,0,0,1-.14,3,3,0,0,0,.84-.42,2.6,2.6,0,0,0,1-1.6H244a4.56,4.56,0,0,1-.51,1.48,4.2,4.2,0,0,1-1,1.16,4.25,4.25,0,0,1-1.35.75,5,5,0,0,1-1.67.27,4.59,4.59,0,0,1-4.27-2.61,7.4,7.4,0,0,1,0-6,4.7,4.7,0,0,1,1.74-1.92,4.76,4.76,0,0,1,2.52-.68,5.29,5.29,0,0,1,1.62.25,4.54,4.54,0,0,1,1.36.72,4.2,4.2,0,0,1,1,1.17A4.43,4.43,0,0,1,244,373.35Z"/><path class="cls-10" d="M249.3,380.88a3.77,3.77,0,0,1-2-.53,3.54,3.54,0,0,1-1.33-1.48,4.83,4.83,0,0,1-.48-2.21,4.92,4.92,0,0,1,.48-2.23,3.48,3.48,0,0,1,1.33-1.48,4.08,4.08,0,0,1,4,0,3.55,3.55,0,0,1,1.33,1.48,5,5,0,0,1,.47,2.23,5,5,0,0,1-.47,2.21,3.61,3.61,0,0,1-1.33,1.48A3.77,3.77,0,0,1,249.3,380.88Zm0-1.34a1.88,1.88,0,0,0,1.24-.4,2.32,2.32,0,0,0,.73-1,4.65,4.65,0,0,0,0-2.89,2.38,2.38,0,0,0-.73-1.06,2.12,2.12,0,0,0-2.48,0,2.38,2.38,0,0,0-.73,1.06,4.47,4.47,0,0,0,0,2.89,2.32,2.32,0,0,0,.73,1A1.88,1.88,0,0,0,249.3,379.54Z"/><path class="cls-10" d="M255.61,383.76a3.2,3.2,0,0,1-.65-.06,1.75,1.75,0,0,1-.44-.12l.38-1.3a1.89,1.89,0,0,0,1.1,0c.3-.1.55-.42.75-.95l.2-.54-3-8.29h1.71l2.07,6.35h.09l2.07-6.35h1.72l-3.38,9.26a3.65,3.65,0,0,1-.6,1.07,2.29,2.29,0,0,1-.86.66A2.82,2.82,0,0,1,255.61,383.76Z"/><path class="cls-10" d="M266.34,380.88a4.06,4.06,0,0,1-2.08-.52,3.53,3.53,0,0,1-1.34-1.47,5.45,5.45,0,0,1,0-4.43,3.71,3.71,0,0,1,1.32-1.5,3.64,3.64,0,0,1,2-.54,4.16,4.16,0,0,1,1.35.23,3.14,3.14,0,0,1,1.16.72,3.36,3.36,0,0,1,.82,1.27,5.54,5.54,0,0,1,.29,1.9v.56h-6.5v-1.19h4.94a2.4,2.4,0,0,0-.25-1.12,2,2,0,0,0-.72-.77,2,2,0,0,0-1.08-.28,2.11,2.11,0,0,0-1.17.33,2.15,2.15,0,0,0-.76.85,2.46,2.46,0,0,0-.27,1.14V377a3,3,0,0,0,.29,1.39,2,2,0,0,0,.81.88,2.4,2.4,0,0,0,1.22.3,2.45,2.45,0,0,0,.83-.13,1.9,1.9,0,0,0,.64-.39,1.82,1.82,0,0,0,.42-.65l1.5.28a2.71,2.71,0,0,1-.64,1.16,3.18,3.18,0,0,1-1.17.77A4.43,4.43,0,0,1,266.34,380.88Z"/><path class="cls-10" d="M271.63,380.71v-8.18h1.54v1.3h.08a2,2,0,0,1,.79-1,2.22,2.22,0,0,1,1.29-.38h.35l.33,0V374l-.34-.06a2.77,2.77,0,0,0-.49,0,2.07,2.07,0,0,0-1,.24,1.88,1.88,0,0,0-.69.65,1.81,1.81,0,0,0-.26.95v5Z"/></g></g><path id="Rectangle_5" data-name="Rectangle 5" class="cls-11" d="M167.44,105.71h222a6,6,0,0,1,6,6v221h-234v-221A6,6,0,0,1,167.44,105.71Z"/><path id="Path_3" data-name="Path 3" class="cls-12" d="M374.78,357.05h-1.67a1.67,1.67,0,0,1-1.67-1.67V348.7a1.68,1.68,0,0,1,1.67-1.68h6.69a1.68,1.68,0,0,1,1.67,1.68v1.67m-5,10h6.69a1.67,1.67,0,0,0,1.67-1.67h0V352a1.67,1.67,0,0,0-1.67-1.67h-6.69a1.67,1.67,0,0,0-1.67,1.67h0v6.68a1.68,1.68,0,0,0,1.67,1.68Z"/></g><g id="Card-2"><path id="Path_4-7" data-name="Path 4-7" class="cls-3" d="M504.44,105.71h222a6,6,0,0,1,6,6v276a6,6,0,0,1-6,6h-222a6,6,0,0,1-6-6v-276A6,6,0,0,1,504.44,105.71Z"/><g id="Sea_Shades" data-name="Sea Shades" class="cls-4"><text class="cls-13" transform="translate(507.44 360.71)"><tspan class="cls-14">S</tspan><tspan class="cls-7" x="12" y="0">e</tspan><tspan x="23.5" y="0">a Shad</tspan><tspan class="cls-15" x="89.24" y="0">e</tspan><tspan x="100.44" y="0">s</tspan></text></g><g id="Braydon_Coyer-2" data-name="Braydon Coyer-2" class="cls-4"><g class="cls-4"><path class="cls-10" d="M508.64,380.71V369.8h4a4.29,4.29,0,0,1,1.92.38,2.67,2.67,0,0,1,1.14,1,2.77,2.77,0,0,1,.38,1.46,2.41,2.41,0,0,1-.25,1.15,2,2,0,0,1-.67.74,2.94,2.94,0,0,1-.92.41v.11a2.17,2.17,0,0,1,1.07.34,2.64,2.64,0,0,1,.86.92,2.89,2.89,0,0,1,.34,1.44,2.94,2.94,0,0,1-.39,1.5,2.73,2.73,0,0,1-1.21,1.05,5,5,0,0,1-2.08.38Zm1.64-6.19h2.21a2.33,2.33,0,0,0,1-.21,1.71,1.71,0,0,0,.7-.6,1.55,1.55,0,0,0,.27-.91,1.51,1.51,0,0,0-.48-1.14,2,2,0,0,0-1.45-.46h-2.25Zm0,4.78h2.38a2.48,2.48,0,0,0,1.69-.46,1.47,1.47,0,0,0,.51-1.14,1.74,1.74,0,0,0-.26-.95,1.83,1.83,0,0,0-.74-.69,2.4,2.4,0,0,0-1.14-.26h-2.44Z"/><path class="cls-10" d="M518.32,380.71v-8.18h1.54v1.3h.08a2,2,0,0,1,.8-1,2.17,2.17,0,0,1,1.28-.38h.36l.32,0V374l-.34-.06a2.77,2.77,0,0,0-.49,0,2.09,2.09,0,0,0-1,.24,1.88,1.88,0,0,0-.69.65,1.81,1.81,0,0,0-.26.95v5Z"/><path class="cls-10" d="M526.39,380.89a3.38,3.38,0,0,1-1.41-.29,2.26,2.26,0,0,1-1-.84,2.44,2.44,0,0,1-.37-1.36,2.19,2.19,0,0,1,.27-1.14,2,2,0,0,1,.72-.71,3.93,3.93,0,0,1,1-.39,11.39,11.39,0,0,1,1.14-.21l1.2-.14a1.7,1.7,0,0,0,.66-.18.45.45,0,0,0,.21-.42v0a1.47,1.47,0,0,0-.39-1.09,1.63,1.63,0,0,0-1.17-.38,2,2,0,0,0-1.26.36,1.86,1.86,0,0,0-.64.78l-1.49-.34a2.76,2.76,0,0,1,.78-1.21,3.21,3.21,0,0,1,1.18-.67,4.72,4.72,0,0,1,1.41-.21,4.82,4.82,0,0,1,1,.12,2.85,2.85,0,0,1,1,.42,2.35,2.35,0,0,1,.79.86,3.1,3.1,0,0,1,.31,1.46v5.43h-1.56v-1.12h-.06a2.13,2.13,0,0,1-.47.61,2.55,2.55,0,0,1-.79.5A3.1,3.1,0,0,1,526.39,380.89Zm.35-1.28a2.25,2.25,0,0,0,1.13-.26,1.89,1.89,0,0,0,.72-.68,1.82,1.82,0,0,0,.24-.91v-1.05a.86.86,0,0,1-.32.15,5.61,5.61,0,0,1-.55.13l-.61.09-.49.06a4,4,0,0,0-.84.2,1.39,1.39,0,0,0-.61.4,1,1,0,0,0-.22.68,1,1,0,0,0,.43.89A2,2,0,0,0,526.74,379.61Z"/><path class="cls-10" d="M533.26,383.76a3.2,3.2,0,0,1-.65-.06,1.75,1.75,0,0,1-.44-.12l.38-1.3a1.89,1.89,0,0,0,1.1,0c.3-.1.55-.42.75-.95l.2-.54-3-8.29h1.71l2.07,6.35h.09l2.07-6.35h1.72l-3.38,9.26a3.65,3.65,0,0,1-.6,1.07,2.29,2.29,0,0,1-.86.66A2.82,2.82,0,0,1,533.26,383.76Z"/><path class="cls-10" d="M543.53,380.87a3.11,3.11,0,0,1-1.76-.51,3.37,3.37,0,0,1-1.22-1.45,5.41,5.41,0,0,1-.44-2.27,5.22,5.22,0,0,1,.45-2.27,3.37,3.37,0,0,1,1.22-1.45,3.2,3.2,0,0,1,1.76-.5,2.55,2.55,0,0,1,1.23.26,2.14,2.14,0,0,1,.72.58,4.62,4.62,0,0,1,.41.6H546V369.8h1.59v10.91H546v-1.27h-.13a4.8,4.8,0,0,1-.42.59,2.31,2.31,0,0,1-.73.59A2.57,2.57,0,0,1,543.53,380.87Zm.35-1.36a1.89,1.89,0,0,0,1.17-.36,2.28,2.28,0,0,0,.72-1,4.08,4.08,0,0,0,.25-1.51,4,4,0,0,0-.25-1.49,2.14,2.14,0,0,0-.72-1,1.85,1.85,0,0,0-1.17-.35,1.89,1.89,0,0,0-1.2.37,2.26,2.26,0,0,0-.72,1,4.12,4.12,0,0,0-.24,1.45,4.29,4.29,0,0,0,.24,1.48,2.39,2.39,0,0,0,.73,1A1.83,1.83,0,0,0,543.88,379.51Z"/><path class="cls-10" d="M553.3,380.88a3.77,3.77,0,0,1-2-.53,3.61,3.61,0,0,1-1.33-1.48,4.83,4.83,0,0,1-.47-2.21,4.91,4.91,0,0,1,.47-2.23,3.55,3.55,0,0,1,1.33-1.48,4.08,4.08,0,0,1,4,0,3.55,3.55,0,0,1,1.33,1.48,4.91,4.91,0,0,1,.47,2.23,4.83,4.83,0,0,1-.47,2.21,3.61,3.61,0,0,1-1.33,1.48A3.77,3.77,0,0,1,553.3,380.88Zm0-1.34a1.88,1.88,0,0,0,1.23-.4,2.32,2.32,0,0,0,.73-1,4.65,4.65,0,0,0,0-2.89,2.38,2.38,0,0,0-.73-1.06,2.12,2.12,0,0,0-2.48,0,2.38,2.38,0,0,0-.73,1.06,4.47,4.47,0,0,0,0,2.89,2.32,2.32,0,0,0,.73,1A1.89,1.89,0,0,0,553.31,379.54Z"/><path class="cls-10" d="M560.48,375.85v4.86h-1.59v-8.18h1.53v1.33h.1a2.34,2.34,0,0,1,.88-1,2.72,2.72,0,0,1,1.53-.4,3,3,0,0,1,1.47.35,2.39,2.39,0,0,1,1,1,3.76,3.76,0,0,1,.35,1.7v5.2h-1.6v-5a2,2,0,0,0-.46-1.39,1.63,1.63,0,0,0-1.27-.51,2,2,0,0,0-1,.24,1.74,1.74,0,0,0-.67.7A2.28,2.28,0,0,0,560.48,375.85Z"/><path class="cls-10" d="M581,373.35h-1.66a2.53,2.53,0,0,0-.36-.94,2.63,2.63,0,0,0-.64-.69,2.76,2.76,0,0,0-.84-.42,3.2,3.2,0,0,0-1-.14,3.05,3.05,0,0,0-1.69.47,3.3,3.3,0,0,0-1.17,1.39,6,6,0,0,0,0,4.48,3.13,3.13,0,0,0,1.18,1.39,3.07,3.07,0,0,0,1.67.47,3.53,3.53,0,0,0,1-.14,3,3,0,0,0,.84-.42,2.6,2.6,0,0,0,1-1.6H581a4.56,4.56,0,0,1-.51,1.48,4.2,4.2,0,0,1-1,1.16,4.25,4.25,0,0,1-1.35.75,5,5,0,0,1-1.67.27,4.59,4.59,0,0,1-4.27-2.61,7.4,7.4,0,0,1,0-6,4.7,4.7,0,0,1,1.74-1.92,4.76,4.76,0,0,1,2.52-.68,5.29,5.29,0,0,1,1.62.25,4.54,4.54,0,0,1,1.36.72,4.2,4.2,0,0,1,1,1.17A4.43,4.43,0,0,1,581,373.35Z"/><path class="cls-10" d="M586.3,380.88a3.77,3.77,0,0,1-2-.53,3.54,3.54,0,0,1-1.33-1.48,4.83,4.83,0,0,1-.48-2.21,4.92,4.92,0,0,1,.48-2.23,3.48,3.48,0,0,1,1.33-1.48,4.08,4.08,0,0,1,4,0,3.55,3.55,0,0,1,1.33,1.48,5,5,0,0,1,.47,2.23,5,5,0,0,1-.47,2.21,3.61,3.61,0,0,1-1.33,1.48A3.77,3.77,0,0,1,586.3,380.88Zm0-1.34a1.88,1.88,0,0,0,1.24-.4,2.32,2.32,0,0,0,.73-1,4.65,4.65,0,0,0,0-2.89,2.38,2.38,0,0,0-.73-1.06,2.12,2.12,0,0,0-2.48,0,2.38,2.38,0,0,0-.73,1.06,4.47,4.47,0,0,0,0,2.89,2.32,2.32,0,0,0,.73,1A1.88,1.88,0,0,0,586.3,379.54Z"/><path class="cls-10" d="M592.61,383.76a3.2,3.2,0,0,1-.65-.06,1.75,1.75,0,0,1-.44-.12l.38-1.3a1.89,1.89,0,0,0,1.1,0c.3-.1.55-.42.75-.95l.2-.54-3-8.29h1.71l2.07,6.35h.09l2.07-6.35h1.72l-3.38,9.26a3.65,3.65,0,0,1-.6,1.07,2.29,2.29,0,0,1-.86.66A2.82,2.82,0,0,1,592.61,383.76Z"/><path class="cls-10" d="M603.34,380.88a4.06,4.06,0,0,1-2.08-.52,3.53,3.53,0,0,1-1.34-1.47,5.45,5.45,0,0,1,0-4.43,3.71,3.71,0,0,1,1.32-1.5,3.64,3.64,0,0,1,2-.54,4.16,4.16,0,0,1,1.35.23,3.14,3.14,0,0,1,1.16.72,3.36,3.36,0,0,1,.82,1.27,5.54,5.54,0,0,1,.29,1.9v.56h-6.5v-1.19h4.94a2.4,2.4,0,0,0-.25-1.12,2,2,0,0,0-.72-.77,2,2,0,0,0-1.08-.28,2.11,2.11,0,0,0-1.17.33,2.15,2.15,0,0,0-.76.85,2.46,2.46,0,0,0-.27,1.14V377a3,3,0,0,0,.29,1.39,2,2,0,0,0,.81.88,2.4,2.4,0,0,0,1.22.3,2.45,2.45,0,0,0,.83-.13,1.9,1.9,0,0,0,.64-.39,1.82,1.82,0,0,0,.42-.65l1.5.28a2.71,2.71,0,0,1-.64,1.16,3.18,3.18,0,0,1-1.17.77A4.43,4.43,0,0,1,603.34,380.88Z"/><path class="cls-10" d="M608.63,380.71v-8.18h1.54v1.3h.08a2,2,0,0,1,.79-1,2.22,2.22,0,0,1,1.29-.38h.35l.33,0V374l-.34-.06a2.77,2.77,0,0,0-.49,0,2.07,2.07,0,0,0-1,.24,1.88,1.88,0,0,0-.69.65,1.81,1.81,0,0,0-.26.95v5Z"/></g></g><path id="Rectangle_5-2" data-name="Rectangle 5-2" class="cls-16" d="M504.44,105.71h222a6,6,0,0,1,6,6v221h-234v-221A6,6,0,0,1,504.44,105.71Z"/><path id="Path_3-2" data-name="Path 3-2" class="cls-12" d="M711.78,357.05h-1.67a1.67,1.67,0,0,1-1.67-1.67V348.7a1.68,1.68,0,0,1,1.67-1.68h6.69a1.68,1.68,0,0,1,1.67,1.68v1.67m-5,10h6.69a1.67,1.67,0,0,0,1.67-1.67h0V352a1.67,1.67,0,0,0-1.67-1.67h-6.69a1.67,1.67,0,0,0-1.67,1.67h0v6.68a1.68,1.68,0,0,0,1.67,1.68Z"/></g><g id="Card-3"><path id="Path_4-8" data-name="Path 4-8" class="cls-3" d="M841.44,105.71h222a6,6,0,0,1,6,6v276a6,6,0,0,1-6,6h-222a6,6,0,0,1-6-6v-276A6,6,0,0,1,841.44,105.71Z"/><g id="Cool_Cucumber" data-name="Cool Cucumber" class="cls-4"><text class="cls-17" transform="translate(844.44 360.71)"><tspan class="cls-7">C</tspan><tspan x="14.28" y="0">ool Cucumber</tspan></text></g><g id="Braydon_Coyer-3" data-name="Braydon Coyer-3" class="cls-4"><g class="cls-4"><path class="cls-10" d="M845.64,380.71V369.8h4a4.29,4.29,0,0,1,1.92.38,2.67,2.67,0,0,1,1.14,1,2.77,2.77,0,0,1,.38,1.46,2.41,2.41,0,0,1-.25,1.15,2,2,0,0,1-.67.74,2.94,2.94,0,0,1-.92.41v.11a2.17,2.17,0,0,1,1.07.34,2.64,2.64,0,0,1,.86.92,2.89,2.89,0,0,1,.34,1.44,2.94,2.94,0,0,1-.39,1.5,2.73,2.73,0,0,1-1.21,1.05,5,5,0,0,1-2.08.38Zm1.64-6.19h2.21a2.33,2.33,0,0,0,1-.21,1.71,1.71,0,0,0,.7-.6,1.55,1.55,0,0,0,.27-.91,1.51,1.51,0,0,0-.48-1.14,2,2,0,0,0-1.45-.46h-2.25Zm0,4.78h2.38a2.48,2.48,0,0,0,1.69-.46,1.47,1.47,0,0,0,.51-1.14,1.74,1.74,0,0,0-.26-.95,1.83,1.83,0,0,0-.74-.69,2.4,2.4,0,0,0-1.14-.26h-2.44Z"/><path class="cls-10" d="M855.32,380.71v-8.18h1.54v1.3h.08a2,2,0,0,1,.8-1,2.17,2.17,0,0,1,1.28-.38h.36l.32,0V374l-.34-.06a2.77,2.77,0,0,0-.49,0,2.09,2.09,0,0,0-1,.24,1.88,1.88,0,0,0-.69.65,1.81,1.81,0,0,0-.26.95v5Z"/><path class="cls-10" d="M863.39,380.89a3.38,3.38,0,0,1-1.41-.29,2.26,2.26,0,0,1-1-.84,2.44,2.44,0,0,1-.37-1.36,2.19,2.19,0,0,1,.27-1.14,2,2,0,0,1,.72-.71,3.93,3.93,0,0,1,1-.39,11.39,11.39,0,0,1,1.14-.21l1.2-.14a1.7,1.7,0,0,0,.66-.18.45.45,0,0,0,.21-.42v0a1.47,1.47,0,0,0-.39-1.09,1.63,1.63,0,0,0-1.17-.38,2,2,0,0,0-1.26.36,1.86,1.86,0,0,0-.64.78l-1.49-.34a2.76,2.76,0,0,1,.78-1.21,3.21,3.21,0,0,1,1.18-.67,4.72,4.72,0,0,1,1.41-.21,4.82,4.82,0,0,1,1,.12,2.85,2.85,0,0,1,1,.42,2.35,2.35,0,0,1,.79.86,3.1,3.1,0,0,1,.31,1.46v5.43h-1.56v-1.12h-.06a2.13,2.13,0,0,1-.47.61,2.55,2.55,0,0,1-.79.5A3.1,3.1,0,0,1,863.39,380.89Zm.35-1.28a2.25,2.25,0,0,0,1.13-.26,1.89,1.89,0,0,0,.72-.68,1.82,1.82,0,0,0,.24-.91v-1.05a.86.86,0,0,1-.32.15,5.61,5.61,0,0,1-.55.13l-.61.09-.49.06a4,4,0,0,0-.84.2,1.39,1.39,0,0,0-.61.4,1,1,0,0,0-.22.68,1,1,0,0,0,.43.89A2,2,0,0,0,863.74,379.61Z"/><path class="cls-10" d="M870.26,383.76a3.2,3.2,0,0,1-.65-.06,1.75,1.75,0,0,1-.44-.12l.38-1.3a1.89,1.89,0,0,0,1.1,0c.3-.1.55-.42.75-.95l.2-.54-3-8.29h1.71l2.07,6.35h.09l2.07-6.35h1.72l-3.38,9.26a3.65,3.65,0,0,1-.6,1.07,2.29,2.29,0,0,1-.86.66A2.82,2.82,0,0,1,870.26,383.76Z"/><path class="cls-10" d="M880.53,380.87a3.11,3.11,0,0,1-1.76-.51,3.37,3.37,0,0,1-1.22-1.45,5.41,5.41,0,0,1-.44-2.27,5.22,5.22,0,0,1,.45-2.27,3.37,3.37,0,0,1,1.22-1.45,3.2,3.2,0,0,1,1.76-.5,2.55,2.55,0,0,1,1.23.26,2.14,2.14,0,0,1,.72.58,4.62,4.62,0,0,1,.41.6H883V369.8h1.59v10.91H883v-1.27h-.13a4.8,4.8,0,0,1-.42.59,2.31,2.31,0,0,1-.73.59A2.57,2.57,0,0,1,880.53,380.87Zm.35-1.36a1.89,1.89,0,0,0,1.17-.36,2.28,2.28,0,0,0,.72-1,4.08,4.08,0,0,0,.25-1.51,4,4,0,0,0-.25-1.49,2.14,2.14,0,0,0-.72-1,1.85,1.85,0,0,0-1.17-.35,1.89,1.89,0,0,0-1.2.37,2.26,2.26,0,0,0-.72,1,4.12,4.12,0,0,0-.24,1.45,4.29,4.29,0,0,0,.24,1.48,2.39,2.39,0,0,0,.73,1A1.83,1.83,0,0,0,880.88,379.51Z"/><path class="cls-10" d="M890.3,380.88a3.77,3.77,0,0,1-2-.53,3.61,3.61,0,0,1-1.33-1.48,4.83,4.83,0,0,1-.47-2.21,4.91,4.91,0,0,1,.47-2.23,3.55,3.55,0,0,1,1.33-1.48,4.08,4.08,0,0,1,4,0,3.55,3.55,0,0,1,1.33,1.48,4.91,4.91,0,0,1,.47,2.23,4.83,4.83,0,0,1-.47,2.21,3.61,3.61,0,0,1-1.33,1.48A3.77,3.77,0,0,1,890.3,380.88Zm0-1.34a1.88,1.88,0,0,0,1.23-.4,2.32,2.32,0,0,0,.73-1,4.65,4.65,0,0,0,0-2.89,2.38,2.38,0,0,0-.73-1.06,2.12,2.12,0,0,0-2.48,0,2.38,2.38,0,0,0-.73,1.06,4.47,4.47,0,0,0,0,2.89,2.32,2.32,0,0,0,.73,1A1.89,1.89,0,0,0,890.31,379.54Z"/><path class="cls-10" d="M897.48,375.85v4.86h-1.59v-8.18h1.53v1.33h.1a2.34,2.34,0,0,1,.88-1,2.72,2.72,0,0,1,1.53-.4,3,3,0,0,1,1.47.35,2.39,2.39,0,0,1,1,1,3.76,3.76,0,0,1,.35,1.7v5.2h-1.6v-5a2,2,0,0,0-.46-1.39,1.63,1.63,0,0,0-1.27-.51,2,2,0,0,0-1,.24,1.74,1.74,0,0,0-.67.7A2.28,2.28,0,0,0,897.48,375.85Z"/><path class="cls-10" d="M918,373.35h-1.66a2.53,2.53,0,0,0-.36-.94,2.63,2.63,0,0,0-.64-.69,2.76,2.76,0,0,0-.84-.42,3.2,3.2,0,0,0-1-.14,3.05,3.05,0,0,0-1.69.47,3.3,3.3,0,0,0-1.17,1.39,6,6,0,0,0,0,4.48,3.13,3.13,0,0,0,1.18,1.39,3.07,3.07,0,0,0,1.67.47,3.53,3.53,0,0,0,1-.14,3,3,0,0,0,.84-.42,2.6,2.6,0,0,0,1-1.6H918a4.56,4.56,0,0,1-.51,1.48,4.2,4.2,0,0,1-1,1.16,4.25,4.25,0,0,1-1.35.75,5,5,0,0,1-1.67.27,4.59,4.59,0,0,1-4.27-2.61,7.4,7.4,0,0,1,0-6,4.7,4.7,0,0,1,1.74-1.92,4.76,4.76,0,0,1,2.52-.68,5.29,5.29,0,0,1,1.62.25,4.54,4.54,0,0,1,1.36.72,4.2,4.2,0,0,1,1,1.17A4.43,4.43,0,0,1,918,373.35Z"/><path class="cls-10" d="M923.3,380.88a3.77,3.77,0,0,1-2-.53,3.54,3.54,0,0,1-1.33-1.48,4.83,4.83,0,0,1-.48-2.21,4.92,4.92,0,0,1,.48-2.23,3.48,3.48,0,0,1,1.33-1.48,4.08,4.08,0,0,1,4,0,3.55,3.55,0,0,1,1.33,1.48,5,5,0,0,1,.47,2.23,5,5,0,0,1-.47,2.21,3.61,3.61,0,0,1-1.33,1.48A3.77,3.77,0,0,1,923.3,380.88Zm0-1.34a1.88,1.88,0,0,0,1.24-.4,2.32,2.32,0,0,0,.73-1,4.65,4.65,0,0,0,0-2.89,2.38,2.38,0,0,0-.73-1.06,2.12,2.12,0,0,0-2.48,0,2.38,2.38,0,0,0-.73,1.06,4.47,4.47,0,0,0,0,2.89,2.32,2.32,0,0,0,.73,1A1.88,1.88,0,0,0,923.3,379.54Z"/><path class="cls-10" d="M929.61,383.76a3.2,3.2,0,0,1-.65-.06,1.75,1.75,0,0,1-.44-.12l.38-1.3a1.89,1.89,0,0,0,1.1,0c.3-.1.55-.42.75-.95l.2-.54-3-8.29h1.71l2.07,6.35h.09l2.07-6.35h1.72l-3.38,9.26a3.65,3.65,0,0,1-.6,1.07,2.29,2.29,0,0,1-.86.66A2.82,2.82,0,0,1,929.61,383.76Z"/><path class="cls-10" d="M940.34,380.88a4.06,4.06,0,0,1-2.08-.52,3.53,3.53,0,0,1-1.34-1.47,5.45,5.45,0,0,1,0-4.43,3.71,3.71,0,0,1,1.32-1.5,3.64,3.64,0,0,1,2-.54,4.16,4.16,0,0,1,1.35.23,3.14,3.14,0,0,1,1.16.72,3.36,3.36,0,0,1,.82,1.27,5.54,5.54,0,0,1,.29,1.9v.56h-6.5v-1.19h4.94a2.4,2.4,0,0,0-.25-1.12,2,2,0,0,0-.72-.77,2,2,0,0,0-1.08-.28,2.11,2.11,0,0,0-1.17.33,2.15,2.15,0,0,0-.76.85,2.46,2.46,0,0,0-.27,1.14V377a3,3,0,0,0,.29,1.39,2,2,0,0,0,.81.88,2.4,2.4,0,0,0,1.22.3,2.45,2.45,0,0,0,.83-.13,1.9,1.9,0,0,0,.64-.39,1.82,1.82,0,0,0,.42-.65l1.5.28a2.71,2.71,0,0,1-.64,1.16,3.18,3.18,0,0,1-1.17.77A4.43,4.43,0,0,1,940.34,380.88Z"/><path class="cls-10" d="M945.63,380.71v-8.18h1.54v1.3h.08a2,2,0,0,1,.79-1,2.22,2.22,0,0,1,1.29-.38h.35l.33,0V374l-.34-.06a2.77,2.77,0,0,0-.49,0,2.07,2.07,0,0,0-1,.24,1.88,1.88,0,0,0-.69.65,1.81,1.81,0,0,0-.26.95v5Z"/></g></g><path id="Rectangle_5-3" data-name="Rectangle 5-3" class="cls-18" d="M841.44,105.71h222a6,6,0,0,1,6,6v221h-234v-221A6,6,0,0,1,841.44,105.71Z"/><path id="Path_3-3" data-name="Path 3-3" class="cls-12" d="M1048.78,357.05h-1.67a1.67,1.67,0,0,1-1.67-1.67V348.7a1.68,1.68,0,0,1,1.67-1.68h6.69a1.68,1.68,0,0,1,1.67,1.68v1.67m-5,10h6.69a1.67,1.67,0,0,0,1.67-1.67h0V352a1.67,1.67,0,0,0-1.67-1.67h-6.69a1.67,1.67,0,0,0-1.67,1.67h0v6.68a1.68,1.68,0,0,0,1.67,1.68Z"/></g><g id="Card-4"><path id="Path_4-9" data-name="Path 4-9" class="cls-3" d="M1178.44,105.71h222a6,6,0,0,1,6,6v276a6,6,0,0,1-6,6h-222a6,6,0,0,1-6-6v-276A6,6,0,0,1,1178.44,105.71Z"/><g id="Perfect_Peach" data-name="Perfect Peach" class="cls-4"><text class="cls-19" transform="translate(1181.44 360.71)"><tspan class="cls-6">P</tspan><tspan x="11.2" y="0">er</tspan><tspan class="cls-20" x="30.2" y="0">f</tspan><tspan class="cls-21" x="36.5" y="0">ec</tspan><tspan class="cls-22" x="58.52" y="0">t </tspan><tspan class="cls-6" x="71.28" y="0">P</tspan><tspan class="cls-7" x="82.48" y="0">e</tspan><tspan class="cls-22" x="93.98" y="0">a</tspan><tspan class="cls-7" x="106.44" y="0">c</tspan><tspan class="cls-8" x="116.96" y="0">h</tspan></text></g><g id="Braydon_Coyer-4" data-name="Braydon Coyer-4" class="cls-4"><g class="cls-4"><path class="cls-10" d="M1182.64,380.71V369.8h4a4.35,4.35,0,0,1,1.92.38,2.67,2.67,0,0,1,1.14,1,2.77,2.77,0,0,1,.38,1.46,2.41,2.41,0,0,1-.25,1.15,2,2,0,0,1-.67.74,2.94,2.94,0,0,1-.92.41v.11a2.17,2.17,0,0,1,1.07.34,2.64,2.64,0,0,1,.86.92,2.89,2.89,0,0,1,.34,1.44,2.94,2.94,0,0,1-.39,1.5,2.73,2.73,0,0,1-1.21,1.05,5,5,0,0,1-2.08.38Zm1.64-6.19h2.21a2.33,2.33,0,0,0,1-.21,1.71,1.71,0,0,0,.7-.6,1.55,1.55,0,0,0,.27-.91,1.51,1.51,0,0,0-.48-1.14,2,2,0,0,0-1.45-.46h-2.25Zm0,4.78h2.38a2.48,2.48,0,0,0,1.69-.46,1.47,1.47,0,0,0,.51-1.14,1.74,1.74,0,0,0-.26-.95,1.83,1.83,0,0,0-.74-.69,2.4,2.4,0,0,0-1.14-.26h-2.44Z"/><path class="cls-10" d="M1192.32,380.71v-8.18h1.54v1.3h.08a2,2,0,0,1,.79-1,2.22,2.22,0,0,1,1.29-.38h.36l.32,0V374l-.34-.06a2.77,2.77,0,0,0-.49,0,2.09,2.09,0,0,0-1,.24,1.88,1.88,0,0,0-.69.65,1.81,1.81,0,0,0-.26.95v5Z"/><path class="cls-10" d="M1200.39,380.89a3.38,3.38,0,0,1-1.41-.29,2.26,2.26,0,0,1-1-.84,2.44,2.44,0,0,1-.37-1.36,2.19,2.19,0,0,1,.27-1.14,2,2,0,0,1,.72-.71,3.93,3.93,0,0,1,1-.39,11.39,11.39,0,0,1,1.14-.21l1.2-.14a1.7,1.7,0,0,0,.66-.18.45.45,0,0,0,.21-.42v0a1.47,1.47,0,0,0-.39-1.09,1.63,1.63,0,0,0-1.17-.38,2,2,0,0,0-1.26.36,1.86,1.86,0,0,0-.64.78l-1.49-.34a2.76,2.76,0,0,1,.78-1.21,3.21,3.21,0,0,1,1.18-.67,4.72,4.72,0,0,1,1.41-.21,4.82,4.82,0,0,1,1,.12,2.85,2.85,0,0,1,1,.42,2.35,2.35,0,0,1,.79.86,3.1,3.1,0,0,1,.31,1.46v5.43h-1.56v-1.12h-.06a2.13,2.13,0,0,1-.47.61,2.55,2.55,0,0,1-.79.5A3.1,3.1,0,0,1,1200.39,380.89Zm.35-1.28a2.25,2.25,0,0,0,1.13-.26,1.89,1.89,0,0,0,.72-.68,1.82,1.82,0,0,0,.24-.91v-1.05a.86.86,0,0,1-.32.15,5.61,5.61,0,0,1-.55.13l-.61.09-.49.06a4,4,0,0,0-.84.2,1.39,1.39,0,0,0-.61.4,1,1,0,0,0-.22.68,1,1,0,0,0,.43.89A2,2,0,0,0,1200.74,379.61Z"/><path class="cls-10" d="M1207.26,383.76a3.2,3.2,0,0,1-.65-.06,1.75,1.75,0,0,1-.44-.12l.38-1.3a1.89,1.89,0,0,0,1.1,0c.3-.1.55-.42.75-.95l.2-.54-3-8.29h1.71l2.07,6.35h.09l2.07-6.35h1.72l-3.38,9.26a3.65,3.65,0,0,1-.6,1.07,2.29,2.29,0,0,1-.86.66A2.82,2.82,0,0,1,1207.26,383.76Z"/><path class="cls-10" d="M1217.53,380.87a3.11,3.11,0,0,1-1.76-.51,3.37,3.37,0,0,1-1.22-1.45,5.41,5.41,0,0,1-.44-2.27,5.22,5.22,0,0,1,.45-2.27,3.37,3.37,0,0,1,1.22-1.45,3.2,3.2,0,0,1,1.76-.5,2.55,2.55,0,0,1,1.23.26,2.14,2.14,0,0,1,.72.58,4.62,4.62,0,0,1,.41.6h.09V369.8h1.59v10.91H1220v-1.27h-.13a4.8,4.8,0,0,1-.42.59,2.31,2.31,0,0,1-.73.59A2.57,2.57,0,0,1,1217.53,380.87Zm.35-1.36a1.89,1.89,0,0,0,1.17-.36,2.28,2.28,0,0,0,.72-1,4.08,4.08,0,0,0,.25-1.51,4,4,0,0,0-.25-1.49,2.14,2.14,0,0,0-.72-1,1.85,1.85,0,0,0-1.17-.35,1.89,1.89,0,0,0-1.2.37,2.26,2.26,0,0,0-.72,1,4.12,4.12,0,0,0-.24,1.45,4.29,4.29,0,0,0,.24,1.48,2.39,2.39,0,0,0,.73,1A1.83,1.83,0,0,0,1217.88,379.51Z"/><path class="cls-10" d="M1227.3,380.88a3.77,3.77,0,0,1-2-.53,3.61,3.61,0,0,1-1.33-1.48,4.83,4.83,0,0,1-.47-2.21,4.91,4.91,0,0,1,.47-2.23,3.55,3.55,0,0,1,1.33-1.48,4.08,4.08,0,0,1,4,0,3.55,3.55,0,0,1,1.33,1.48,4.91,4.91,0,0,1,.47,2.23,4.83,4.83,0,0,1-.47,2.21,3.61,3.61,0,0,1-1.33,1.48A3.77,3.77,0,0,1,1227.3,380.88Zm0-1.34a1.88,1.88,0,0,0,1.24-.4,2.32,2.32,0,0,0,.73-1,4.65,4.65,0,0,0,0-2.89,2.38,2.38,0,0,0-.73-1.06,2.12,2.12,0,0,0-2.48,0,2.38,2.38,0,0,0-.73,1.06,4.47,4.47,0,0,0,0,2.89,2.32,2.32,0,0,0,.73,1A1.88,1.88,0,0,0,1227.3,379.54Z"/><path class="cls-10" d="M1234.48,375.85v4.86h-1.59v-8.18h1.53v1.33h.1a2.34,2.34,0,0,1,.88-1,2.72,2.72,0,0,1,1.53-.4,3,3,0,0,1,1.47.35,2.39,2.39,0,0,1,1,1,3.76,3.76,0,0,1,.35,1.7v5.2h-1.6v-5a2,2,0,0,0-.46-1.39,1.63,1.63,0,0,0-1.27-.51,2,2,0,0,0-1,.24,1.74,1.74,0,0,0-.67.7A2.28,2.28,0,0,0,1234.48,375.85Z"/><path class="cls-10" d="M1255,373.35h-1.66a2.71,2.71,0,0,0-.36-.94,2.63,2.63,0,0,0-.64-.69,2.76,2.76,0,0,0-.84-.42,3.2,3.2,0,0,0-1-.14,3.05,3.05,0,0,0-1.69.47,3.3,3.3,0,0,0-1.17,1.39,6,6,0,0,0,0,4.48,3.13,3.13,0,0,0,1.18,1.39,3.07,3.07,0,0,0,1.67.47,3.53,3.53,0,0,0,1-.14,3,3,0,0,0,.84-.42,2.6,2.6,0,0,0,1-1.6H1255a4.56,4.56,0,0,1-.51,1.48,4.23,4.23,0,0,1-2.34,1.91,4.9,4.9,0,0,1-1.66.27,4.59,4.59,0,0,1-4.27-2.61,7.4,7.4,0,0,1,0-6,4.64,4.64,0,0,1,1.74-1.92,4.76,4.76,0,0,1,2.52-.68,5.29,5.29,0,0,1,1.62.25,4.54,4.54,0,0,1,1.36.72,4.2,4.2,0,0,1,1,1.17A4.43,4.43,0,0,1,1255,373.35Z"/><path class="cls-10" d="M1260.3,380.88a3.77,3.77,0,0,1-2-.53,3.54,3.54,0,0,1-1.33-1.48,4.83,4.83,0,0,1-.48-2.21,4.92,4.92,0,0,1,.48-2.23,3.48,3.48,0,0,1,1.33-1.48,4.08,4.08,0,0,1,4,0,3.55,3.55,0,0,1,1.33,1.48,5,5,0,0,1,.47,2.23,5,5,0,0,1-.47,2.21,3.61,3.61,0,0,1-1.33,1.48A3.79,3.79,0,0,1,1260.3,380.88Zm0-1.34a1.88,1.88,0,0,0,1.24-.4,2.32,2.32,0,0,0,.73-1,4.65,4.65,0,0,0,0-2.89,2.38,2.38,0,0,0-.73-1.06,2.12,2.12,0,0,0-2.48,0,2.38,2.38,0,0,0-.73,1.06,4.47,4.47,0,0,0,0,2.89,2.32,2.32,0,0,0,.73,1A1.88,1.88,0,0,0,1260.3,379.54Z"/><path class="cls-10" d="M1266.61,383.76a3.2,3.2,0,0,1-.65-.06,1.75,1.75,0,0,1-.44-.12l.38-1.3a1.89,1.89,0,0,0,1.1,0c.3-.1.55-.42.75-.95l.2-.54-3-8.29h1.71l2.07,6.35h.09l2.07-6.35h1.72l-3.38,9.26a3.65,3.65,0,0,1-.6,1.07,2.29,2.29,0,0,1-.86.66A2.86,2.86,0,0,1,1266.61,383.76Z"/><path class="cls-10" d="M1277.34,380.88a4.06,4.06,0,0,1-2.08-.52,3.53,3.53,0,0,1-1.34-1.47,5.45,5.45,0,0,1,0-4.43,3.71,3.71,0,0,1,1.32-1.5,3.64,3.64,0,0,1,2-.54,4.06,4.06,0,0,1,1.34.23,3.1,3.1,0,0,1,1.17.72,3.36,3.36,0,0,1,.82,1.27,5.54,5.54,0,0,1,.29,1.9v.56h-6.5v-1.19h4.94a2.4,2.4,0,0,0-.25-1.12,2,2,0,0,0-.72-.77,2,2,0,0,0-1.08-.28,2.08,2.08,0,0,0-1.17.33,2.15,2.15,0,0,0-.76.85,2.46,2.46,0,0,0-.27,1.14V377a3,3,0,0,0,.29,1.39,2,2,0,0,0,.81.88,2.4,2.4,0,0,0,1.22.3,2.45,2.45,0,0,0,.83-.13,1.9,1.9,0,0,0,.64-.39,1.82,1.82,0,0,0,.42-.65l1.5.28a2.71,2.71,0,0,1-.64,1.16,3.18,3.18,0,0,1-1.17.77A4.43,4.43,0,0,1,1277.34,380.88Z"/><path class="cls-10" d="M1282.63,380.71v-8.18h1.54v1.3h.08a2,2,0,0,1,.79-1,2.22,2.22,0,0,1,1.29-.38h.35l.33,0V374l-.34-.06a2.77,2.77,0,0,0-.49,0,2.07,2.07,0,0,0-1,.24,1.88,1.88,0,0,0-.69.65,1.81,1.81,0,0,0-.26.95v5Z"/></g></g><path id="Rectangle_5-4" data-name="Rectangle 5-4" class="cls-23" d="M1178.44,105.71h222a6,6,0,0,1,6,6v221h-234v-221A6,6,0,0,1,1178.44,105.71Z"/><path id="Path_3-4" data-name="Path 3-4" class="cls-12" d="M1385.78,357.05h-1.67a1.67,1.67,0,0,1-1.67-1.67V348.7a1.68,1.68,0,0,1,1.67-1.68h6.69a1.68,1.68,0,0,1,1.67,1.68v1.67m-5,10h6.69a1.67,1.67,0,0,0,1.67-1.67h0V352a1.67,1.67,0,0,0-1.67-1.67h-6.69a1.67,1.67,0,0,0-1.67,1.67h0v6.68a1.68,1.68,0,0,0,1.67,1.68Z"/></g><g id="Card-5"><path id="Path_4-10" data-name="Path 4-10" class="cls-3" d="M1515.44,105.71h222a6,6,0,0,1,6,6v276a6,6,0,0,1-6,6h-222a6,6,0,0,1-6-6v-276A6,6,0,0,1,1515.44,105.71Z"/><g id="Awesome_Aqua" data-name="Awesome Aqua" class="cls-4"><text class="cls-24" transform="translate(1518.44 360.71)"><tspan class="cls-25">Awe</tspan><tspan class="cls-26" x="39.4" y="0">s</tspan><tspan x="48.56" y="0">ome </tspan><tspan class="cls-9" x="94.02" y="0">A</tspan><tspan x="107.32" y="0">qua</tspan></text></g><g id="Braydon_Coyer-5" data-name="Braydon Coyer-5" class="cls-4"><g class="cls-4"><path class="cls-10" d="M1519.64,380.71V369.8h4a4.35,4.35,0,0,1,1.92.38,2.67,2.67,0,0,1,1.14,1,2.77,2.77,0,0,1,.38,1.46,2.41,2.41,0,0,1-.25,1.15,2,2,0,0,1-.67.74,2.94,2.94,0,0,1-.92.41v.11a2.17,2.17,0,0,1,1.07.34,2.64,2.64,0,0,1,.86.92,2.89,2.89,0,0,1,.34,1.44,2.94,2.94,0,0,1-.39,1.5,2.73,2.73,0,0,1-1.21,1.05,5,5,0,0,1-2.08.38Zm1.64-6.19h2.21a2.33,2.33,0,0,0,1-.21,1.71,1.71,0,0,0,.7-.6,1.55,1.55,0,0,0,.27-.91,1.51,1.51,0,0,0-.48-1.14,2,2,0,0,0-1.45-.46h-2.25Zm0,4.78h2.38a2.48,2.48,0,0,0,1.69-.46,1.47,1.47,0,0,0,.51-1.14,1.74,1.74,0,0,0-.26-.95,1.83,1.83,0,0,0-.74-.69,2.4,2.4,0,0,0-1.14-.26h-2.44Z"/><path class="cls-10" d="M1529.32,380.71v-8.18h1.54v1.3h.08a2,2,0,0,1,.79-1,2.22,2.22,0,0,1,1.29-.38h.36l.32,0V374l-.34-.06a2.77,2.77,0,0,0-.49,0,2.09,2.09,0,0,0-1,.24,1.88,1.88,0,0,0-.69.65,1.81,1.81,0,0,0-.26.95v5Z"/><path class="cls-10" d="M1537.39,380.89a3.38,3.38,0,0,1-1.41-.29,2.26,2.26,0,0,1-1-.84,2.44,2.44,0,0,1-.37-1.36,2.19,2.19,0,0,1,.27-1.14,2,2,0,0,1,.72-.71,3.93,3.93,0,0,1,1-.39,11.39,11.39,0,0,1,1.14-.21l1.2-.14a1.7,1.7,0,0,0,.66-.18.45.45,0,0,0,.21-.42v0a1.47,1.47,0,0,0-.39-1.09,1.63,1.63,0,0,0-1.17-.38,2,2,0,0,0-1.26.36,1.86,1.86,0,0,0-.64.78l-1.49-.34a2.76,2.76,0,0,1,.78-1.21,3.21,3.21,0,0,1,1.18-.67,4.72,4.72,0,0,1,1.41-.21,4.82,4.82,0,0,1,1,.12,2.85,2.85,0,0,1,1,.42,2.35,2.35,0,0,1,.79.86,3.1,3.1,0,0,1,.31,1.46v5.43h-1.56v-1.12h-.06a2.13,2.13,0,0,1-.47.61,2.55,2.55,0,0,1-.79.5A3.1,3.1,0,0,1,1537.39,380.89Zm.35-1.28a2.25,2.25,0,0,0,1.13-.26,1.89,1.89,0,0,0,.72-.68,1.82,1.82,0,0,0,.24-.91v-1.05a.86.86,0,0,1-.32.15,5.61,5.61,0,0,1-.55.13l-.61.09-.49.06a4,4,0,0,0-.84.2,1.39,1.39,0,0,0-.61.4,1,1,0,0,0-.22.68,1,1,0,0,0,.43.89A2,2,0,0,0,1537.74,379.61Z"/><path class="cls-10" d="M1544.26,383.76a3.2,3.2,0,0,1-.65-.06,1.75,1.75,0,0,1-.44-.12l.38-1.3a1.89,1.89,0,0,0,1.1,0c.3-.1.55-.42.75-.95l.2-.54-3-8.29h1.71l2.07,6.35h.09l2.07-6.35h1.72l-3.38,9.26a3.65,3.65,0,0,1-.6,1.07,2.29,2.29,0,0,1-.86.66A2.82,2.82,0,0,1,1544.26,383.76Z"/><path class="cls-10" d="M1554.53,380.87a3.11,3.11,0,0,1-1.76-.51,3.37,3.37,0,0,1-1.22-1.45,5.41,5.41,0,0,1-.44-2.27,5.22,5.22,0,0,1,.45-2.27,3.37,3.37,0,0,1,1.22-1.45,3.2,3.2,0,0,1,1.76-.5,2.55,2.55,0,0,1,1.23.26,2.14,2.14,0,0,1,.72.58,4.62,4.62,0,0,1,.41.6h.09V369.8h1.59v10.91H1557v-1.27h-.13a4.8,4.8,0,0,1-.42.59,2.31,2.31,0,0,1-.73.59A2.57,2.57,0,0,1,1554.53,380.87Zm.35-1.36a1.89,1.89,0,0,0,1.17-.36,2.28,2.28,0,0,0,.72-1,4.08,4.08,0,0,0,.25-1.51,4,4,0,0,0-.25-1.49,2.14,2.14,0,0,0-.72-1,1.85,1.85,0,0,0-1.17-.35,1.89,1.89,0,0,0-1.2.37,2.26,2.26,0,0,0-.72,1,4.12,4.12,0,0,0-.24,1.45,4.29,4.29,0,0,0,.24,1.48,2.39,2.39,0,0,0,.73,1A1.83,1.83,0,0,0,1554.88,379.51Z"/><path class="cls-10" d="M1564.3,380.88a3.77,3.77,0,0,1-2-.53,3.61,3.61,0,0,1-1.33-1.48,4.83,4.83,0,0,1-.47-2.21,4.91,4.91,0,0,1,.47-2.23,3.55,3.55,0,0,1,1.33-1.48,4.08,4.08,0,0,1,4,0,3.55,3.55,0,0,1,1.33,1.48,4.91,4.91,0,0,1,.47,2.23,4.83,4.83,0,0,1-.47,2.21,3.61,3.61,0,0,1-1.33,1.48A3.77,3.77,0,0,1,1564.3,380.88Zm0-1.34a1.88,1.88,0,0,0,1.24-.4,2.32,2.32,0,0,0,.73-1,4.65,4.65,0,0,0,0-2.89,2.38,2.38,0,0,0-.73-1.06,2.12,2.12,0,0,0-2.48,0,2.38,2.38,0,0,0-.73,1.06,4.47,4.47,0,0,0,0,2.89,2.32,2.32,0,0,0,.73,1A1.88,1.88,0,0,0,1564.3,379.54Z"/><path class="cls-10" d="M1571.48,375.85v4.86h-1.59v-8.18h1.53v1.33h.1a2.34,2.34,0,0,1,.88-1,2.72,2.72,0,0,1,1.53-.4,3,3,0,0,1,1.47.35,2.39,2.39,0,0,1,1,1,3.76,3.76,0,0,1,.35,1.7v5.2h-1.6v-5a2,2,0,0,0-.46-1.39,1.63,1.63,0,0,0-1.27-.51,2,2,0,0,0-1,.24,1.74,1.74,0,0,0-.67.7A2.28,2.28,0,0,0,1571.48,375.85Z"/><path class="cls-10" d="M1592,373.35h-1.66a2.71,2.71,0,0,0-.36-.94,2.63,2.63,0,0,0-.64-.69,2.76,2.76,0,0,0-.84-.42,3.2,3.2,0,0,0-1-.14,3.05,3.05,0,0,0-1.69.47,3.3,3.3,0,0,0-1.17,1.39,6,6,0,0,0,0,4.48,3.13,3.13,0,0,0,1.18,1.39,3.07,3.07,0,0,0,1.67.47,3.53,3.53,0,0,0,1-.14,3,3,0,0,0,.84-.42,2.6,2.6,0,0,0,1-1.6H1592a4.56,4.56,0,0,1-.51,1.48,4.23,4.23,0,0,1-2.34,1.91,4.9,4.9,0,0,1-1.66.27,4.59,4.59,0,0,1-4.27-2.61,7.4,7.4,0,0,1,0-6,4.64,4.64,0,0,1,1.74-1.92,4.76,4.76,0,0,1,2.52-.68,5.29,5.29,0,0,1,1.62.25,4.54,4.54,0,0,1,1.36.72,4.2,4.2,0,0,1,1,1.17A4.43,4.43,0,0,1,1592,373.35Z"/><path class="cls-10" d="M1597.3,380.88a3.77,3.77,0,0,1-2-.53,3.54,3.54,0,0,1-1.33-1.48,4.83,4.83,0,0,1-.48-2.21,4.92,4.92,0,0,1,.48-2.23,3.48,3.48,0,0,1,1.33-1.48,4.08,4.08,0,0,1,4,0,3.55,3.55,0,0,1,1.33,1.48,5,5,0,0,1,.47,2.23,5,5,0,0,1-.47,2.21,3.61,3.61,0,0,1-1.33,1.48A3.79,3.79,0,0,1,1597.3,380.88Zm0-1.34a1.88,1.88,0,0,0,1.24-.4,2.32,2.32,0,0,0,.73-1,4.65,4.65,0,0,0,0-2.89,2.38,2.38,0,0,0-.73-1.06,2.12,2.12,0,0,0-2.48,0,2.38,2.38,0,0,0-.73,1.06,4.47,4.47,0,0,0,0,2.89,2.32,2.32,0,0,0,.73,1A1.88,1.88,0,0,0,1597.3,379.54Z"/><path class="cls-10" d="M1603.61,383.76a3.2,3.2,0,0,1-.65-.06,1.75,1.75,0,0,1-.44-.12l.38-1.3a1.89,1.89,0,0,0,1.1,0c.3-.1.55-.42.75-.95l.2-.54-3-8.29h1.71l2.07,6.35h.09l2.07-6.35h1.72l-3.38,9.26a3.65,3.65,0,0,1-.6,1.07,2.29,2.29,0,0,1-.86.66A2.86,2.86,0,0,1,1603.61,383.76Z"/><path class="cls-10" d="M1614.34,380.88a4.06,4.06,0,0,1-2.08-.52,3.53,3.53,0,0,1-1.34-1.47,5.45,5.45,0,0,1,0-4.43,3.71,3.71,0,0,1,1.32-1.5,3.64,3.64,0,0,1,2-.54,4.06,4.06,0,0,1,1.34.23,3.1,3.1,0,0,1,1.17.72,3.36,3.36,0,0,1,.82,1.27,5.54,5.54,0,0,1,.29,1.9v.56h-6.5v-1.19h4.94a2.4,2.4,0,0,0-.25-1.12,2,2,0,0,0-.72-.77,2,2,0,0,0-1.08-.28,2.08,2.08,0,0,0-1.17.33,2.15,2.15,0,0,0-.76.85,2.46,2.46,0,0,0-.27,1.14V377a3,3,0,0,0,.29,1.39,2,2,0,0,0,.81.88,2.4,2.4,0,0,0,1.22.3,2.45,2.45,0,0,0,.83-.13,1.9,1.9,0,0,0,.64-.39,1.82,1.82,0,0,0,.42-.65l1.5.28a2.71,2.71,0,0,1-.64,1.16,3.18,3.18,0,0,1-1.17.77A4.43,4.43,0,0,1,1614.34,380.88Z"/><path class="cls-10" d="M1619.63,380.71v-8.18h1.54v1.3h.08a2,2,0,0,1,.79-1,2.22,2.22,0,0,1,1.29-.38h.35l.33,0V374l-.34-.06a2.77,2.77,0,0,0-.49,0,2.07,2.07,0,0,0-1,.24,1.88,1.88,0,0,0-.69.65,1.81,1.81,0,0,0-.26.95v5Z"/></g></g><path id="Rectangle_5-5" data-name="Rectangle 5-5" class="cls-27" d="M1515.44,105.71h222a6,6,0,0,1,6,6v221h-234v-221A6,6,0,0,1,1515.44,105.71Z"/><path id="Path_3-5" data-name="Path 3-5" class="cls-12" d="M1722.78,357.05h-1.67a1.67,1.67,0,0,1-1.67-1.67V348.7a1.68,1.68,0,0,1,1.67-1.68h6.69a1.68,1.68,0,0,1,1.67,1.68v1.67m-5,10h6.69a1.67,1.67,0,0,0,1.67-1.67h0V352a1.67,1.67,0,0,0-1.67-1.67h-6.69a1.67,1.67,0,0,0-1.67,1.67h0v6.68a1.68,1.68,0,0,0,1.67,1.68Z"/></g></g></g><rect id="Rectangle_22" data-name="Rectangle 22" class="cls-28" width="1920" height="838"/></svg>